HIERARCHY
ROOT hip
{
	OFFSET 0.000000 0.000000 0.000000 
	CHANNELS 6 Xposition Yposition Zposition Xrotation Zrotation Yrotation
	JOINT abdomen
	{
		OFFSET 0.000000 3.402643 0.000000 
		CHANNELS 3 Xrotation Zrotation Yrotation
		JOINT chest
		{
			OFFSET 0.000000 8.438565 -0.680529 
			CHANNELS 3 Xrotation Zrotation Yrotation
			JOINT neck
			{
				OFFSET 0.000000 10.207942 -0.272212 
				CHANNELS 3 Xrotation Zrotation Yrotation
				JOINT head
				{
					OFFSET 0.000000 3.130431 0.000000 
					CHANNELS 3 Xrotation Zrotation Yrotation
					End Site
					{
						OFFSET 0.000000 3.130435 0.000000 
					}
				}
			}
			JOINT lCollar
			{
				OFFSET 3.470700 6.669187 -0.816635 
				CHANNELS 3 Yrotation Zrotation Xrotation
				JOINT lShldr
				{
					OFFSET 3.198488 0.000000 0.000000 
					CHANNELS 3 Zrotation Yrotation Xrotation
					JOINT lForeArm
					{
						OFFSET 10.139888 0.000000 0.000000 
						CHANNELS 3 Yrotation Zrotation Xrotation
						JOINT lHand
						{
							OFFSET 8.370511 0.000000 0.000000 
							CHANNELS 3 Zrotation Yrotation Xrotation
							End Site
							{
								OFFSET 4.083176 0.000000 0.000000 
							}
						}
					}
				}
			}
			JOINT rCollar
			{
				OFFSET -3.470700 6.669187 -0.816635 
				CHANNELS 3 Yrotation Zrotation Xrotation
				JOINT rShldr
				{
					OFFSET -3.198488 0.000000 0.000000 
					CHANNELS 3 Zrotation Yrotation Xrotation
					JOINT rForeArm
					{
						OFFSET -10.139888 0.000000 0.000000 
						CHANNELS 3 Yrotation Zrotation Xrotation
						JOINT rHand
						{
							OFFSET -8.370511 0.000000 0.000000 
							CHANNELS 3 Zrotation Yrotation Xrotation
							End Site
							{
								OFFSET -4.083176 0.000000 0.000000 
							}
						}
					}
				}
			}
		}
	}
	JOINT lThigh
	{
		OFFSET 5.308129 -1.633274 1.361059 
		CHANNELS 3 Xrotation Zrotation Yrotation
		JOINT lShin
		{
			OFFSET -2.041588 -20.007561 0.000000 
			CHANNELS 3 Xrotation Zrotation Yrotation
			JOINT lFoot
			{
				OFFSET 0.000000 -19.190928 -1.224953 
				CHANNELS 3 Xrotation Yrotation Zrotation
				End Site
				{
					OFFSET 0.000000 -2.449906 4.627600 
				}
			}
		}
	}
	JOINT rThigh
	{
		OFFSET -5.308129 -1.633274 1.361059 
		CHANNELS 3 Xrotation Zrotation Yrotation
		JOINT rShin
		{
			OFFSET 2.041588 -20.007561 0.000000 
			CHANNELS 3 Xrotation Zrotation Yrotation
			JOINT rFoot
			{
				OFFSET 0.000000 -19.190928 -1.224953 
				CHANNELS 3 Xrotation Yrotation Zrotation
				End Site
				{
					OFFSET 0.000000 -2.449906 4.627600 
				}
			}
		}
	}
}
MOTION
Frames: 11
Frame Time: 0.016667
0.361692 43.910473 0.270068 4.013690 -0.146125 -3.525900 -23.728100 0.834337 0.975410 16.317200 1.343970 0.574239 19.632900 -0.244442 -1.945790 13.385100 4.259060 -0.525863 2.000000 -2.000000 0.000000 89.265404 169.613998 -1.958240 34.609699 -0.327372 0.077711 0.044881 -0.008911 -140.104996 -2.000000 2.000000 0.000000 -91.564201 -160.697998 -2.001550 -42.959400 0.314903 0.093173 -0.056792 -0.017853 -127.010002 -7.404861 0.945971 -7.421772 21.331676 3.441734 1.481587 -20.343027 18.361940 6.122579 -0.672297 -2.227311 5.560524 3.594791 -4.219288 -0.125116 -14.368838 -8.109645 -3.103129 
0.362262 43.910610 0.271031 4.023450 -0.165606 -3.527300 -23.737801 0.834307 0.975342 16.307400 1.343950 0.574010 19.601900 -0.278640 -1.931440 13.365500 4.259340 -0.517548 2.000000 -2.000000 0.000000 89.265404 169.585007 -1.948550 34.668301 -0.327292 0.077826 0.044891 -0.009102 -140.173996 -2.000000 2.000000 0.000000 -91.573997 -160.697998 -1.991780 -42.969200 0.314887 0.093190 -0.056787 -0.017826 -127.018997 -7.414513 0.957008 -7.431056 21.352333 3.438620 1.490571 -20.335127 18.342163 6.108479 -0.681615 -2.216189 5.560615 3.597718 -4.229628 -0.125037 -14.356810 -8.114593 -3.094081 
0.363039 43.911507 0.274824 4.033220 -0.165604 -3.527330 -23.728300 0.848788 0.958410 16.326900 1.353730 0.563983 19.620800 -0.259980 -1.914030 13.385300 4.268700 -0.504747 2.000000 -2.000000 0.000000 89.245796 169.585007 -1.929010 34.697601 -0.327253 0.077884 0.044896 -0.009184 -140.203003 -2.000000 2.000000 0.000000 -91.593498 -160.707993 -1.991760 -42.978901 0.314871 0.093207 -0.056792 -0.017853 -127.010002 -7.412237 0.965596 -7.411732 21.341520 3.442023 1.481543 -20.336170 18.355103 6.116246 -0.681924 -2.206953 5.570894 3.586095 -4.227169 -0.134937 -14.347879 -8.106957 -3.100085 
0.363815 43.912281 0.278616 4.042990 -0.175344 -3.537810 -23.718700 0.850903 0.936267 16.346399 1.373240 0.563011 19.639700 -0.241326 -1.896600 13.395200 4.278190 -0.502434 2.000000 -2.000000 0.000000 89.236099 169.593994 -1.909460 34.726898 -0.327213 0.077941 0.044902 -0.009293 -140.242004 -2.000000 2.000000 0.000000 -91.613098 -160.727005 -1.981940 -42.988701 0.314855 0.093224 -0.056792 -0.017853 -127.010002 -7.431159 0.962961 -7.400503 21.360880 3.444743 1.481853 -20.336128 18.373034 6.116011 -0.691314 -2.195759 5.570976 3.586066 -4.227194 -0.134939 -14.346486 -8.109225 -3.101372 
0.365173 43.912663 0.281789 4.062520 -0.165598 -3.537180 -23.728399 0.854300 0.945338 16.356199 1.363520 0.563960 19.639700 -0.259721 -1.903170 13.395200 4.278190 -0.502434 2.000000 -2.000000 0.000000 89.236099 169.584000 -1.860650 34.746498 -0.327186 0.077979 0.044911 -0.009430 -140.291000 -2.000000 2.000000 0.000000 -91.613098 -160.727005 -2.011240 -42.988701 0.314855 0.093224 -0.056797 -0.017879 -127.000000 -7.443569 0.960066 -7.429123 21.354136 3.429453 1.498653 -20.351427 18.367136 6.124774 -0.709671 -2.212041 5.559320 3.597444 -4.229856 -0.125061 -14.372714 -8.125510 -3.100414 
0.366531 43.913055 0.284962 4.082050 -0.155854 -3.536540 -23.738100 0.854268 0.945265 16.365999 1.363530 0.564193 19.639099 -0.286649 -1.903290 13.395100 4.268560 -0.504021 2.000000 -2.000000 0.000000 89.245796 169.584000 -1.811830 34.756199 -0.327173 0.077999 0.044919 -0.009566 -140.339996 -2.000000 2.000000 0.000000 -91.613098 -160.727005 -2.040540 -42.978901 0.314871 0.093207 -0.056797 -0.017879 -127.000000 -7.454469 0.945060 -7.428259 21.334257 3.430129 1.498959 -20.359865 18.354380 6.130421 -0.721706 -2.230488 5.567425 3.577912 -4.221301 -0.134753 -14.357136 -8.114063 -3.093780 
0.367198 43.912407 0.288821 4.082050 -0.165594 -3.527470 -23.738100 0.854268 0.945265 16.365999 1.344050 0.565619 19.678600 -0.242141 -1.894320 13.424700 4.287400 -0.498657 2.000000 -2.000000 0.000000 89.236099 169.623993 -1.860560 34.687901 -0.327266 0.077865 0.044911 -0.009430 -140.291000 -2.000000 2.000000 0.000000 -91.613098 -160.727005 -2.021010 -42.988701 0.314855 0.093224 -0.056787 -0.017826 -127.018997 -7.465289 0.952341 -7.447145 21.353783 3.431787 1.499076 -20.374277 18.357115 6.125252 -0.721869 -2.219923 5.558148 3.584279 -4.216389 -0.144711 -14.362720 -8.101196 -3.097599 
0.367865 43.911903 0.292681 4.082050 -0.175335 -3.528170 -23.738100 0.854268 0.945265 16.375799 1.334330 0.566560 19.717600 -0.206185 -1.878860 13.444600 4.306390 -0.494008 2.000000 -2.000000 0.000000 89.226303 169.671997 -1.909280 34.629299 -0.327345 0.077750 0.044902 -0.009293 -140.242004 -2.000000 2.000000 0.000000 -91.613098 -160.737000 -2.001450 -42.998501 0.314840 0.093241 -0.056778 -0.017772 -127.039001 -7.455532 0.962906 -7.457663 21.353703 3.432298 1.499169 -20.372772 18.354841 6.135251 -0.721882 -2.210051 5.558667 3.584249 -4.216417 -0.144713 -14.383680 -8.103870 -3.100625 
0.366143 43.912022 0.296154 4.101580 -0.165590 -3.527530 -23.728500 0.847443 0.927049 16.405100 1.334380 0.557476 19.707800 -0.215172 -1.882730 13.434800 4.306530 -0.494742 2.000000 -2.000000 0.000000 89.236099 169.682007 -1.938550 34.609699 -0.327372 0.077711 0.044899 -0.009239 -140.223007 -2.000000 2.000000 0.000000 -91.613098 -160.746994 -2.001430 -42.998501 0.314840 0.093241 -0.056787 -0.017826 -127.018997 -7.472130 0.969441 -7.427287 21.333199 3.431797 1.479797 -20.352488 18.344267 6.136204 -0.730916 -2.208584 5.558263 3.577297 -4.221819 -0.134806 -14.356157 -8.111886 -3.103638 
0.364420 43.912281 0.299626 4.121110 -0.165586 -3.517820 -23.718800 0.844046 0.917978 16.434401 1.334430 0.548393 19.687700 -0.214096 -1.874150 13.425000 4.306670 -0.495475 2.000000 -2.000000 0.000000 89.236099 169.692001 -1.958060 34.590199 -0.327398 0.077673 0.044896 -0.009184 -140.203003 -2.000000 2.000000 0.000000 -91.603302 -160.757004 -1.991640 -43.008202 0.314824 0.093258 -0.056797 -0.017879 -127.000000 -7.499323 0.965239 -7.395941 21.360794 3.445304 1.481953 -20.381861 18.349115 6.122589 -0.749602 -2.204686 5.547641 3.585987 -4.227754 -0.144735 -14.332066 -8.118045 -3.093144 
0.361938 43.913055 0.303092 4.150410 -0.185060 -3.509550 -23.728600 0.852954 0.913977 16.444201 1.344190 0.547920 19.638500 -0.276787 -1.890240 13.405000 4.278050 -0.501706 2.000000 -2.000000 0.000000 89.245903 169.692001 -1.938530 34.590199 -0.327398 0.077673 0.044901 -0.009266 -140.231995 -2.000000 2.000000 0.000000 -91.613098 -160.757004 -1.981870 -43.008202 0.314824 0.093258 -0.056797 -0.017879 -127.000000 -7.527780 0.996313 -7.413851 21.354410 3.427671 1.498328 -20.351852 18.298948 6.119702 -0.769921 -2.179741 5.528146 3.577443 -4.221696 -0.134793 -14.348724 -8.127736 -3.100156 
